<svg width="31" height="31" viewBox="0 0 31 31" fill="none" xmlns="http://www.w3.org/2000/svg">
<path d="M13.4172 22.8141C8.23442 22.8141 3.97192 18.6 3.97192 13.3688C3.97192 8.18596 8.18599 3.92346 13.4172 3.92346C18.6485 3.92346 22.8625 8.13752 22.8625 13.3688C22.8141 18.6 18.6 22.8141 13.4172 22.8141ZM13.4172 5.32815C8.96099 5.32815 5.32817 8.96096 5.32817 13.4172C5.32817 17.8735 8.96099 21.5063 13.4172 21.5063C17.8735 21.5063 21.5063 17.8735 21.5063 13.4172C21.4579 8.96096 17.825 5.32815 13.4172 5.32815Z" fill="white"/>
<path d="M26.0111 27.0282L19.4236 20.4891L20.4892 19.4235L27.0283 26.011L26.0111 27.0282Z" fill="white"/>
</svg>
