<svg width="27" height="27" viewBox="0 0 27 27" fill="none" xmlns="http://www.w3.org/2000/svg">
<path d="M23.2428 1.85405C21.882 0.495591 19.6782 0.495591 18.3174 1.85405L17.0844 3.09374L3.9599 16.2113L3.93201 16.2394C3.92525 16.2462 3.92525 16.2534 3.91806 16.2534C3.90411 16.2743 3.8832 16.295 3.86947 16.3159C3.86947 16.3229 3.86228 16.3229 3.86228 16.3299C3.84833 16.3508 3.84157 16.3647 3.82741 16.3856C3.82065 16.3926 3.82065 16.3994 3.81368 16.4066C3.80671 16.4275 3.79974 16.4414 3.79254 16.4623C3.79254 16.4691 3.78579 16.4691 3.78579 16.4763L0.873849 25.2328C0.788428 25.4821 0.853366 25.7582 1.04099 25.9432C1.17282 26.0733 1.35064 26.1461 1.53564 26.1454C1.61126 26.1441 1.68622 26.1323 1.75857 26.1106L10.5083 23.1916C10.5151 23.1916 10.5151 23.1916 10.5223 23.1849C10.5443 23.1784 10.5654 23.169 10.5848 23.1568C10.5903 23.1561 10.5951 23.1537 10.599 23.15C10.6197 23.1361 10.6476 23.1219 10.6685 23.108C10.6892 23.0942 10.7103 23.0733 10.7313 23.0594C10.7382 23.0522 10.745 23.0522 10.745 23.0454C10.7522 23.0385 10.7661 23.0317 10.7731 23.0175L25.1306 8.66005C26.489 7.2992 26.489 5.09547 25.1306 3.73483L23.2428 1.85405ZM10.2854 21.5545L5.4369 16.7062L17.5721 4.57096L22.4206 9.41925L10.2854 21.5545ZM4.75397 17.9949L8.98971 22.2304L2.62934 24.3481L4.75397 17.9949ZM24.1484 7.68468L23.4099 8.43015L18.5612 3.58142L19.3069 2.83617C20.1225 2.02118 21.4446 2.02118 22.2605 2.83617L24.1552 4.7309C24.9647 5.55025 24.9617 6.86926 24.1484 7.68468Z" fill="white"/>
</svg>
