<svg width="56" height="55" viewBox="0 0 56 55" fill="none" xmlns="http://www.w3.org/2000/svg">
<path d="M0.5 27.5C0.5 12.5965 12.8052 0.5 28 0.5C43.1972 0.5 55.5 12.5965 55.5 27.5C55.5 42.4035 43.1972 54.5 28 54.5C12.804 54.5 0.5 42.4035 0.5 27.5ZM37.7624 17.319C37.7624 12.0116 33.384 7.72282 28 7.72282C22.6183 7.72282 18.24 12.0117 18.24 17.319C18.24 22.6276 22.6184 26.9152 28 26.9152C33.384 26.9152 37.7624 22.6277 37.7624 17.319ZM12.7276 40.0172C12.7276 41.2989 13.3013 42.5173 14.2913 43.3468L14.2914 43.3468C17.9834 46.441 22.7699 48.31 27.9938 48.31C33.2188 48.31 38.0064 46.4412 41.6973 43.3458C42.6892 42.516 43.2601 41.2997 43.2601 40.0172C43.2601 34.6363 38.8438 30.3461 33.3894 30.3461H22.613C17.161 30.3461 12.7276 34.6353 12.7276 40.0172Z" fill="white" stroke="black"/>
</svg>
